<?xml version="1.0" encoding="iso-8859-1"?>
<!-- Generator: Adobe Illustrator 19.0.0, SVG Export Plug-In . SVG Version: 6.00 Build 0)  -->
<svg version="1.1" id="Layer_1" xmlns="http://www.w3.org/2000/svg" xmlns:xlink="http://www.w3.org/1999/xlink" x="0px" y="0px"
	 viewBox="0 0 512 512" style="enable-background:new 0 0 512 512;" xml:space="preserve">
<g>
	<g>
		<path d="M506.861,247.572l-102.734-52.928l35.218-110.069c1.082-3.38,0.184-7.083-2.325-9.593
			c-2.513-2.514-6.214-3.41-9.594-2.326L317.356,107.87L264.428,5.139C262.803,1.984,259.55,0,256,0s-6.803,1.984-8.428,5.139
			L194.643,107.87L84.573,72.655c-3.381-1.081-7.083-0.183-9.594,2.326c-2.509,2.509-3.407,6.213-2.325,9.593l35.218,110.069
			L5.139,247.572C1.984,249.197,0,252.449,0,256s1.983,6.803,5.139,8.428l102.733,52.928L72.654,427.426
			c-1.082,3.38-0.184,7.083,2.325,9.593c2.51,2.512,6.211,3.405,9.594,2.326l110.07-35.215l52.928,102.731
			C249.197,510.016,252.45,512,256,512s6.803-1.984,8.428-5.139l52.928-102.731l110.069,35.215c3.382,1.081,7.083,0.183,9.594-2.326
			s3.407-6.213,2.325-9.593l-35.218-110.069l102.734-52.928c3.156-1.625,5.139-4.878,5.139-8.428S510.016,249.197,506.861,247.572z
			 M123.69,207.826c4.117-2.12,6.1-6.907,4.688-11.317l-27.052-84.551l134.56,134.56H48.588L123.69,207.826z M128.377,315.493
			c1.412-4.41-0.571-9.197-4.688-11.317l-75.103-38.694h185.398L102.219,397.247L128.377,315.493z M246.517,463.411l-38.692-75.101
			c-1.661-3.224-4.957-5.141-8.428-5.141c-0.961,0-1.934,0.148-2.889,0.454l-79.18,25.333l129.189-129.189V463.411z
			 M246.517,230.333L120.123,103.939l76.385,24.439c4.405,1.41,9.197-0.569,11.317-4.687l38.692-75.101V230.333z M383.621,196.509
			c-1.412,4.41,0.571,9.197,4.688,11.317l75.103,38.692H279.765l129.191-129.191L383.621,196.509z M265.48,48.584l38.694,75.106
			c2.121,4.116,6.911,6.1,11.317,4.688l81.754-26.157L265.48,233.986V48.584z M315.492,383.623
			c-4.403-1.408-9.196,0.569-11.317,4.687l-38.694,75.106V276.113l134.56,134.56L315.492,383.623z M388.309,304.176
			c-4.117,2.12-6.1,6.907-4.688,11.317l24.44,76.384L281.665,265.482h181.747L388.309,304.176z"/>
	</g>
</g>
<g>
</g>
<g>
</g>
<g>
</g>
<g>
</g>
<g>
</g>
<g>
</g>
<g>
</g>
<g>
</g>
<g>
</g>
<g>
</g>
<g>
</g>
<g>
</g>
<g>
</g>
<g>
</g>
<g>
</g>
</svg>
