<?xml version="1.0" encoding="iso-8859-1"?>
<!-- Generator: Adobe Illustrator 19.0.0, SVG Export Plug-In . SVG Version: 6.00 Build 0)  -->
<svg version="1.1" id="Layer_1" xmlns="http://www.w3.org/2000/svg" xmlns:xlink="http://www.w3.org/1999/xlink" x="0px" y="0px"
	 viewBox="0 0 512 512" style="enable-background:new 0 0 512 512;" xml:space="preserve">
<g>
	<g>
		<path d="M462.195,499.926c-12.182-76.82-65.601-140.013-139.404-164.916c-3.759-1.269-7.916-0.294-10.719,2.509l-56.07,56.07
			l-56.07-56.07c-2.806-2.803-6.963-3.779-10.717-2.509c-73.805,24.901-127.224,88.093-139.409,164.915
			c-0.479,3.017,0.387,6.093,2.37,8.414c1.983,2.323,4.886,3.661,7.939,3.661h391.771c3.053,0,5.956-1.338,7.939-3.66
			C461.807,506.017,462.674,502.943,462.195,499.926z M72.743,491.122c13.903-61.558,57.652-111.864,117.091-134.173l58.786,58.785
			c4.073,4.075,10.689,4.075,14.761,0l58.784-58.785c59.441,22.31,103.191,72.616,117.091,134.173H72.743z"/>
	</g>
</g>
<g>
	<g>
		<path d="M363.499,97.4c13.51-41.717,9.871-85.943,9.705-87.867c-0.428-4.911-4.233-8.855-9.127-9.458
			c-4.876-0.584-9.54,2.303-11.145,6.963c-8.003,23.241-22.413,32.701-44.066,28.857c-16.591-9.644-34.368-14.532-52.866-14.532
			c-69.075,0-125.27,70.245-125.27,156.587s56.194,156.587,125.27,156.587s125.27-70.245,125.27-156.587
			C381.271,149.415,375.136,121.668,363.499,97.4z M256.001,313.658c-57.561,0-104.391-60.879-104.391-135.709
			S198.441,42.24,256.001,42.24c15.253,0,29.964,4.206,43.724,12.503c1.017,0.613,2.131,1.049,3.293,1.287
			c19.395,3.976,36.195,0.198,49.074-10.508c-1.139,14.802-3.818,32.515-9.71,49.147c-0.958,2.709-0.759,5.693,0.553,8.25
			c11.42,22.264,17.458,48.208,17.458,75.029C360.393,252.779,313.562,313.658,256.001,313.658z"/>
	</g>
</g>
<g>
</g>
<g>
</g>
<g>
</g>
<g>
</g>
<g>
</g>
<g>
</g>
<g>
</g>
<g>
</g>
<g>
</g>
<g>
</g>
<g>
</g>
<g>
</g>
<g>
</g>
<g>
</g>
<g>
</g>
</svg>
