<?xml version="1.0" encoding="iso-8859-1"?>
<!-- Generator: Adobe Illustrator 19.0.0, SVG Export Plug-In . SVG Version: 6.00 Build 0)  -->
<svg version="1.1" id="Layer_1" xmlns="http://www.w3.org/2000/svg" xmlns:xlink="http://www.w3.org/1999/xlink" x="0px" y="0px"
	 viewBox="0 0 512 512" style="enable-background:new 0 0 512 512;" xml:space="preserve">
<g>
	<g>
		<path d="M481.892,424.076V144.918c2.978-3.993,4.566-8.454,4.491-13.112c-0.145-8.98-6.341-17.09-17.003-22.248L274.685,15.362
			c-17.654-8.54-45.313-8.54-62.966,0L17.023,109.558c-10.672,5.164-16.876,13.275-17.02,22.255
			c-0.143,8.965,5.783,17.257,16.258,22.748l54.154,28.385v139.523c0,44.231,36.03,80.215,80.316,80.215h180.592
			c44.286,0,80.316-35.984,80.316-80.215V185.225l50.18-26.302v265.153c-17.286,4.474-30.108,20.158-30.108,38.823
			c0,22.135,18.009,40.144,40.144,40.144S512,485.034,512,462.899C512,444.235,499.177,428.55,481.892,424.076z M391.568,322.468
			c0,33.162-27.026,60.143-60.244,60.143H150.731c-33.218,0-60.244-26.98-60.244-60.143V193.466l121.416,63.639
			c8.775,4.599,20.036,6.898,31.299,6.898c11.261,0,22.522-2.299,31.298-6.898l117.068-61.36V322.468z M460.824,136.782
			L265.181,239.327c-11.711,6.139-32.252,6.137-43.96,0L25.579,136.782c-4.32-2.264-5.443-4.27-5.509-4.614
			c0.077-0.414,1.269-2.401,5.695-4.543L220.46,33.429c12.114-5.86,33.369-5.86,45.483,0l194.694,94.197
			c4.423,2.14,5.604,4.12,5.677,4.472C466.255,132.512,465.143,134.518,460.824,136.782z M471.856,482.971
			c-11.067,0-20.072-9.005-20.072-20.072c0-11.068,9.005-20.072,20.072-20.072c11.068,0,20.072,9.005,20.072,20.072
			C491.928,473.967,482.923,482.971,471.856,482.971z"/>
	</g>
</g>
<g>
</g>
<g>
</g>
<g>
</g>
<g>
</g>
<g>
</g>
<g>
</g>
<g>
</g>
<g>
</g>
<g>
</g>
<g>
</g>
<g>
</g>
<g>
</g>
<g>
</g>
<g>
</g>
<g>
</g>
</svg>
